HIERARCHY
ROOT Hips
{
	OFFSET 0.00000 0.00000 0.00000
	CHANNELS 6 Xposition Yposition Zposition Yrotation Zrotation Xrotation 
	JOINT Lumbar
	{
		OFFSET 0 0 0
		CHANNELS 3 Zrotation Xrotation Yrotation
		JOINT Neck
		{
			OFFSET 0.00 0.2701 0.00
			CHANNELS 3 Zrotation Xrotation Yrotation
			End Site
			{
				OFFSET 0.00 0.1379 0.00
			}
		}
		JOINT RightShoulder
		{
			OFFSET 0.0119 0.2289 0.1181
			CHANNELS 3 Zrotation Xrotation Yrotation
			JOINT RightElbow
			{
				OFFSET 0.00 -0.1475 0.00
				CHANNELS 2 Zrotation Yrotation
				JOINT RightWrist
				{
					OFFSET 0.00 -0.1605 0.00
					CHANNELS 2 Zrotation Xrotation
					End Site
					{
						OFFSET 0.0040 -0.1068 0.0006
					}
				}
			}
		}
		JOINT LeftShoulder
		{
			OFFSET 0.0119 0.2289 -0.1181
			CHANNELS 3 Zrotation Xrotation Yrotation
			JOINT LeftElbow
			{
				OFFSET 0.00 -0.1475 0.00
				CHANNELS 2 Zrotation Yrotation
				JOINT LeftWrist
				{
					OFFSET 0.00 -0.1605 0.00
					CHANNELS 2 Zrotation Xrotation
					End Site
					{
						OFFSET 0.0040 -0.1068 -0.0006
					}
				}
			}
		}
	}
	JOINT RightHip
	{
		OFFSET 0.0316 -0.0424 0.0458
		CHANNELS 3 Zrotation Xrotation Yrotation
		JOINT RightKnee
		{
			OFFSET 0.00 -0.2438 0.00
			CHANNELS 1 Zrotation
			JOINT RightAnkle
			{
				OFFSET 0.00 -0.2449 0.00
				CHANNELS 3 Zrotation Xrotation Yrotation
				End Site
				{
					OFFSET 0.1237 -0.0542 0.0051
				}
			}
		}
	}
	JOINT LeftHip
	{
		OFFSET 0.0316 -0.0424 -0.0458
		CHANNELS 3 Zrotation Xrotation Yrotation
		JOINT LeftKnee
		{
			OFFSET 0.00 -0.2438 0.00
			CHANNELS 1 Zrotation
			JOINT LeftAnkle
			{
				OFFSET 0.00 -0.2449 0.00
				CHANNELS 3 Zrotation Xrotation Yrotation
				End Site
				{
					OFFSET 0.1237 -0.0542 -0.0051
				}
			}
		}
	}
}
MOTION
Frames: 31
Frame Time: 0.02
0.12766 0.54704 -0.3986 1261.68178 0 -3.59152 -8.78406 18.70263 0.76947 -32.51458 1.08164 4.9386 33.11348 -21.4242 -15.41568 12.15185 82.24382 -4.55958 -5.53176 11.6912 28.86823 -38.25639 71.32003 -83.53419 -24.79776 3.37627 -11.52934 6.75105 2.33132 -17.05466 10.44359 -3.99242 -3.38543 21.12174 0.09276 -0.42937 -14.36423 -0.14015 1.13515 -1.45948
0.11567 0.54726 -0.39605 1261.77925 0 -3.55106 -8.71112 18.44872 0.71984 -32.82692 1.16692 4.95761 32.94341 -21.51009 -15.78199 12.09694 82.22934 -4.59245 -5.49098 12.04721 28.47075 -38.39409 70.38208 -83.61657 -24.83255 3.37791 -10.918 6.25685 1.71921 -19.94435 9.68995 -3.31125 -2.17928 21.11019 -0.2093 -0.43786 -16.28182 0.00916 1.11311 -1.55104
0.10347 0.54812 -0.39322 1261.93809 0 -3.46256 -8.59169 18.20667 0.63731 -33.17243 1.20844 4.92485 32.76445 -21.55335 -16.21731 12.03044 82.21838 -4.64065 -5.46875 12.47811 28.05389 -38.50247 69.32502 -83.66182 -24.97314 3.36627 -9.98158 5.63676 0.94168 -23.31658 8.45084 -2.43427 -0.70935 20.99483 -0.54735 -0.47963 -18.26875 0.45806 1.06077 -1.70138
0.0914 0.54868 -0.39054 1262.06451 0 -3.39759 -8.49257 17.9578 0.56602 -33.49658 1.27246 4.91627 32.59385 -21.61468 -16.60124 11.97297 82.20651 -4.67947 -5.43989 12.86165 27.65988 -38.61147 68.35765 -83.72156 -25.0662 3.36102 -9.15823 5.08871 0.27883 -26.49615 7.37162 -1.67942 0.60877 20.9024 -0.86071 -0.48946 -20.18082 0.77576 1.01554 -1.83573
0.07917 0.54924 -0.38774 1262.2077 0 -3.32355 -8.39656 17.71073 0.51155 -33.84755 1.32679 4.90699 32.40268 -21.68341 -17.07231 11.8995 82.19168 -4.7282 -5.40306 13.29966 27.20463 -38.77289 67.23998 -83.79388 -25.1562 3.35494 -8.47336 4.4746 -0.54592 -29.58709 6.53119 -0.78516 2.07043 20.91824 -1.20956 -0.56271 -22.32124 1.0626 0.9964 -1.93269
0.06723 0.54997 -0.38514 1262.33265 0 -3.25854 -8.28277 17.46577 0.41315 -34.15023 1.38982 4.885 32.25326 -21.72472 -17.37807 11.85641 82.18379 -4.76003 -5.38689 13.64377 26.87396 -38.81957 66.40681 -83.82931 -25.27758 3.34694 -7.42781 3.97046 -1.07856 -32.95834 5.10049 -0.13339 3.28696 20.6815 -1.49248 -0.51774 -23.98481 1.48709 0.91737 -2.11669
0.0561 0.55098 -0.3831 1262.37645 0 -3.21998 -8.13646 17.20637 0.20994 -34.31352 1.4944 4.85385 32.21988 -21.715 -17.20091 11.9031 82.19507 -4.74152 -5.42936 13.69642 26.88142 -38.54456 66.39324 -83.78336 -25.4648 3.34003 -5.44188 3.78888 -0.71422 -37.10162 1.96466 -0.2142 3.83039 19.77416 -1.58967 -0.09995 -24.31711 2.2386 0.66952 -2.5485
0.04527 0.55215 -0.38128 1262.40238 0 -3.19409 -7.9733 16.95234 -0.03767 -34.42641 1.60774 4.80919 32.22928 -21.67653 -16.85646 11.9802 82.213 -4.70549 -5.49107 13.6544 27.01697 -38.15721 66.66963 -83.69944 -25.67925 3.33109 -3.10981 3.72464 -0.05886 -41.48367 -1.71282 -0.5433 4.10588 18.61503 -1.6183 0.43061 -24.15993 3.11626 0.36462 -3.06092
0.03432 0.55325 -0.37938 1262.44753 0 -3.16935 -7.81415 16.70759 -0.27088 -34.56138 1.71263 4.76173 32.22054 -21.64166 -16.59417 12.04152 82.2274 -4.67749 -5.53995 13.66517 27.10105 -37.82939 66.80967 -83.62493 -25.87793 3.32085 -0.95229 3.61509 0.42961 -45.68256 -5.01445 -0.74872 4.45767 17.56951 -1.67499 0.88347 -24.21918 3.92458 0.09304 -3.52133
0.02329 0.55433 -0.37738 1262.44983 0 -3.11417 -7.66751 16.41364 -0.48202 -34.70215 1.83539 4.74976 32.20655 -21.64482 -16.3078 12.11099 82.24428 -4.64978 -5.60629 13.6383 27.15623 -37.46533 66.9633 -83.58138 -26.09422 3.3192 1.29089 3.46817 1.05568 -50.22685 -8.87828 -0.9923 5.00671 16.52427 -1.7461 1.44547 -24.30832 4.79372 -0.21094 -4.04903
0.01251 0.55548 -0.37564 1262.534 0 -3.12553 -7.49301 16.2234 -0.74775 -34.81701 1.92295 4.66191 32.21301 -21.56305 -16.03177 12.17052 82.25727 -4.61707 -5.64111 13.66511 27.30196 -37.14973 67.16099 -83.46591 -26.27942 3.29978 3.43185 3.42746 1.46998 -54.08557 -11.69628 -1.21891 5.08279 15.41955 -1.77032 1.80914 -24.21632 5.56244 -0.46043 -4.45464
0.00235 0.55679 -0.37453 1262.86835 0 -3.32189 -7.23256 16.31745 -1.16583 -34.88453 1.91657 4.36326 32.27199 -21.24929 -15.81786 12.19815 82.26016 -4.57506 -5.57971 13.87391 27.6697 -37.00211 67.39369 -83.15194 -26.3674 3.22804 5.21804 3.66145 1.19799 -56.12768 -11.46763 -1.32992 3.87532 14.216 -1.68292 1.58195 -23.75517 6.02067 -0.54668 -4.50514
-0.00754 0.55815 -0.37366 1263.28172 0 -3.58399 -6.94751 16.51573 -1.63466 -34.92537 1.87364 3.98992 32.34883 -20.85219 -15.62124 12.21428 82.25851 -4.52851 -5.48666 14.13771 28.12372 -36.90619 67.66433 -82.76887 -26.42351 3.13923 6.8848 3.99664 0.70907 -57.44193 -10.17125 -1.4174 2.20861 12.96117 -1.5505 1.15436 -23.12618 6.37253 -0.57578 -4.42935
-0.01753 0.55946 -0.37269 1263.64563 0 -3.81361 -6.68243 16.66682 -2.07212 -34.97041 1.84418 3.65397 32.41335 -20.4963 -15.42106 12.23372 82.25738 -4.48379 -5.41093 14.36891 28.53605 -36.78213 67.92838 -82.42353 -26.49678 3.06075 8.59747 4.27998 0.34047 -59.00099 -9.37709 -1.5223 0.77813 11.72768 -1.43759 0.82888 -22.56599 6.77307 -0.63007 -4.40993
-0.02763 0.56086 -0.3717 1264.06611 0 -4.05546 -6.37903 16.81757 -2.54691 -35.04699 1.82842 3.30262 32.49741 -20.12491 -15.19656 12.26211 82.26284 -4.43938 -5.3235 14.62868 28.96294 -36.67306 68.15716 -82.04979 -26.55981 2.97137 10.36059 4.59363 -0.10886 -60.93985 -8.52617 -1.60876 -0.78084 10.4932 -1.32561 0.4606 -22.01976 7.17645 -0.68953 -4.39769
-0.03742 0.56209 -0.37081 1264.3878 0 -4.28628 -6.15057 16.99342 -2.95453 -35.05242 1.77516 2.9662 32.54409 -19.76689 -15.02949 12.26897 82.25363 -4.39357 -5.25267 14.8436 29.37877 -36.54739 68.46511 -81.71972 -26.63621 2.9006 11.98214 4.86472 -0.44659 -61.90136 -7.53814 -1.72304 -2.17389 9.25244 -1.20281 0.13252 -21.4117 7.54735 -0.72407 -4.33941
-0.04647 0.56292 -0.37011 1264.41716 0 -4.47901 -6.12877 17.21542 -3.17168 -34.86621 1.62896 2.68605 32.48604 -19.46201 -15.01358 12.21683 82.20304 -4.34426 -5.23532 14.91804 29.73848 -36.35608 68.97699 -81.52366 -26.75703 2.886 13.26914 5.00998 -0.41183 -60.42654 -6.38295 -1.93464 -3.02872 8.00405 -1.05349 -0.03709 -20.671 7.85042 -0.70245 -4.18493
-0.05523 0.56356 -0.36951 1264.34473 0 -4.65661 -6.18444 17.45856 -3.31793 -34.60998 1.44603 2.42417 32.38904 -19.17442 -15.05659 12.14366 82.13818 -4.29392 -5.23571 14.94628 30.08412 -36.14812 69.56668 -81.37467 -26.89222 2.89059 14.41008 5.1054 -0.25978 -57.97621 -5.13293 -2.17113 -3.69319 6.7533 -0.89661 -0.15965 -19.87778 8.12469 -0.65789 -3.98828
-0.0641 0.56426 -0.36887 1264.31878 0 -4.83574 -6.20898 17.69056 -3.49146 -34.38705 1.27867 2.1561 32.30777 -18.88173 -15.07523 12.08152 82.08113 -4.2446 -5.22793 14.99856 30.43871 -35.95315 70.12299 -81.20674 -27.02102 2.88602 15.59942 5.21208 -0.17159 -55.91593 -3.95646 -2.38521 -4.42256 5.50628 -0.74855 -0.30324 -19.11188 8.41404 -0.62418 -3.81018
-0.07301 0.56508 -0.3682 1264.29359 0 -5.04032 -6.21577 17.93295 -3.68739 -34.1565 1.11443 1.8765 32.23542 -18.57433 -15.08309 12.01289 82.01835 -4.19277 -5.21945 15.04086 30.78626 -35.7373 70.67293 -81.02647 -27.14856 2.88278 16.86432 5.3699 -0.05052 -54.05545 -2.61538 -2.64517 -5.26016 4.24452 -0.57614 -0.45508 -18.32155 8.69085 -0.58591 -3.62933
-0.08179 0.5656 -0.36763 1264.24294 0 -5.18669 -6.27781 18.157 -3.81951 -33.92604 0.9359 1.62624 32.13509 -18.30293 -15.12859 11.9528 81.96414 -4.14602 -5.21714 15.091 31.14319 -35.55997 71.25345 -80.88341 -27.28202 2.88146 17.93416 5.40872 0.03811 -51.55651 -1.60741 -2.81615 -5.82012 3.01559 -0.45327 -0.57619 -17.5765 8.98893 -0.55343 -3.44706
-0.09022 0.56532 -0.36727 1264.13585 0 -5.18213 -6.47708 18.32834 -3.78944 -33.70923 0.72278 1.4527 31.96612 -18.12541 -15.25225 11.92259 81.93758 -4.1132 -5.2268 15.18524 31.53595 -35.49653 71.90376 -80.83741 -27.43274 2.88164 18.54003 5.1249 -0.038 -47.5433 -1.55733 -2.73172 -5.66708 1.86249 -0.46871 -0.62158 -16.93372 9.34747 -0.5343 -3.26119
-0.09854 0.56474 -0.36702 1264.0088 0 -5.11815 -6.72841 18.47969 -3.69796 -33.49602 0.49733 1.30824 31.77044 -17.98387 -15.41414 11.90149 81.92014 -4.08563 -5.24232 15.2869 31.93725 -35.47193 72.58074 -80.82666 -27.58807 2.88304 18.94843 4.72398 -0.14159 -42.92803 -1.84917 -2.55778 -5.23861 0.74643 -0.53424 -0.63746 -16.34741 9.72964 -0.52371 -3.07788
-0.10693 0.56427 -0.36675 1263.8971 0 -5.07685 -6.95407 18.6373 -3.6365 -33.28341 0.28059 1.15091 31.58745 -17.82753 -15.5655 11.87556 81.89817 -4.05591 -5.25584 15.37724 32.32958 -35.4265 73.24287 -80.79612 -27.73875 2.88336 19.42166 4.37983 -0.20046 -38.57905 -1.97893 -2.42709 -4.92792 -0.37721 -0.5777 -0.66694 -15.75756 10.1054 -0.51481 -2.90054
-0.1152 0.56389 -0.36637 1263.75336 0 -5.05277 -7.19224 18.80646 -3.56366 -33.0578 0.0501 0.99332 31.40066 -17.66649 -15.68868 11.85198 81.87709 -4.02514 -5.26731 15.49842 32.74184 -35.39225 73.92081 -80.78244 -27.9014 2.88643 19.99285 4.01777 -0.38936 -34.20576 -2.12936 -2.2858 -4.63771 -1.54321 -0.61927 -0.69264 -15.06607 10.46302 -0.48119 -2.69135
-0.12372 0.56327 -0.36623 1263.67549 0 -4.97958 -7.41404 18.948 -3.50091 -32.86243 -0.15504 0.84218 31.21609 -17.52197 -15.88055 11.8257 81.85682 -3.99785 -5.28401 15.55914 33.11622 -35.34627 74.5692 -80.74222 -28.03917 2.88395 20.31757 3.66738 -0.31805 -29.77892 -2.32383 -2.14575 -4.24735 -2.60813 -0.67509 -0.72163 -14.60831 10.86288 -0.50185 -2.54989
-0.1329 0.56206 -0.36669 1263.76292 0 -4.77932 -7.5918 19.00517 -3.4807 -32.73832 -0.27944 0.70873 31.04361 -17.42839 -16.23797 11.79184 81.83376 -3.97871 -5.3154 15.43912 33.37054 -35.23997 75.14463 -80.61319 -28.11443 2.86468 19.98786 3.36473 0.49915 -25.13403 -2.51756 -2.02461 -3.60034 -3.43483 -0.77174 -0.7488 -14.71843 11.38354 -0.66567 -2.59489
-0.14234 0.56063 -0.36738 1263.92189 0 -4.53281 -7.74828 19.0374 -3.47314 -32.64717 -0.37895 0.57963 30.87497 -17.34776 -16.66554 11.75461 81.81177 -3.96297 -5.35143 15.26057 33.58835 -35.12381 75.68563 -80.4573 -28.1631 2.83992 19.42127 3.08057 1.57369 -20.50134 -2.75008 -1.90882 -2.8714 -4.15343 -0.87795 -0.78226 -15.07617 11.94176 -0.88414 -2.70907
-0.1517 0.55931 -0.36799 1264.06264 0 -4.31154 -7.90502 19.08965 -3.46041 -32.54853 -0.49502 0.44354 30.70461 -17.25154 -17.07054 11.71765 81.79124 -3.94575 -5.3842 15.11676 33.83252 -35.0246 76.23274 -80.31798 -28.21902 2.81835 18.97903 2.79674 2.51763 -16.01102 -2.99281 -1.79477 -2.21262 -4.90279 -0.97153 -0.82704 -15.35988 12.47946 -1.08159 -2.79066
-0.16091 0.55794 -0.36851 1264.14208 0 -4.07057 -8.10343 19.10514 -3.44319 -32.41765 -0.59027 0.32862 30.53153 -17.19643 -17.43808 11.68645 81.76293 -3.92831 -5.42214 14.93832 34.03837 -34.87502 76.82333 -80.16145 -28.29536 2.79388 18.46143 2.47183 3.52264 -10.87569 -3.1363 -1.66029 -1.40694 -5.73537 -1.10407 -0.81768 -15.47413 13.0424 -1.26595 -2.87355
-0.1705 0.55662 -0.36928 1264.36676 0 -3.86016 -8.20917 19.19078 -3.43897 -32.36262 -0.72166 0.17152 30.36745 -17.05969 -17.89922 11.64217 81.7508 -3.91226 -5.45022 14.8186 34.31193 -34.82634 77.31203 -80.03397 -28.32297 2.77415 18.04445 2.23854 4.45647 -7.09329 -3.48319 -1.57044 -0.8891 -6.36069 -1.15425 -0.91445 -16.0105 13.54898 -1.48702 -2.97468
